name D:\school\WTK\thesis\model\3dpredictsim\Results\debug_batch\Pog_s1_tmt_bCst_d05_k1000_ig24_act_TTC.mot
datacolumns 128
datarows 4
range 0.61828689 0.65538411
endheader
time	pelvis_tilt	pelvis_list	pelvis_rotation	pelvis_tx	pelvis_ty	pelvis_tz	hip_flexion_l	hip_adduction_l	hip_rotation_l	hip_flexion_r	hip_adduction_r	hip_rotation_r	knee_angle_l	knee_angle_r	ankle_angle_l	ankle_angle_r	subtalar_angle_l	subtalar_angle_r	tmt_angle_l	tmt_angle_r	mtp_angle_l	mtp_angle_r	lumbar_extension	lumbar_bending	lumbar_rotation	arm_flex_l	arm_add_l	arm_rot_l	arm_flex_r	arm_add_r	arm_rot_r	elbow_flex_l	elbow_flex_r	pro_sup_l	pro_sup_r	glut_med1_l/activation	glut_med2_l/activation	glut_med3_l/activation	glut_min1_l/activation	glut_min2_l/activation	glut_min3_l/activation	semimem_l/activation	semiten_l/activation	bifemlh_l/activation	bifemsh_l/activation	sar_l/activation	add_long_l/activation	add_brev_l/activation	add_mag1_l/activation	add_mag2_l/activation	add_mag3_l/activation	tfl_l/activation	pect_l/activation	grac_l/activation	glut_max1_l/activation	glut_max2_l/activation	glut_max3_l/activation	iliacus_l/activation	psoas_l/activation	quad_fem_l/activation	gem_l/activation	peri_l/activation	rect_fem_l/activation	vas_med_l/activation	vas_int_l/activation	vas_lat_l/activation	med_gas_l/activation	lat_gas_l/activation	soleus_l/activation	tib_post_l/activation	flex_dig_l/activation	flex_hal_l/activation	tib_ant_l/activation	per_brev_l/activation	per_long_l/activation	per_tert_l/activation	ext_dig_l/activation	ext_hal_l/activation	ercspn_l/activation	intobl_l/activation	extobl_l/activation	glut_med1_r/activation	glut_med2_r/activation	glut_med3_r/activation	glut_min1_r/activation	glut_min2_r/activation	glut_min3_r/activation	semimem_r/activation	semiten_r/activation	bifemlh_r/activation	bifemsh_r/activation	sar_r/activation	add_long_r/activation	add_brev_r/activation	add_mag1_r/activation	add_mag2_r/activation	add_mag3_r/activation	tfl_r/activation	pect_r/activation	grac_r/activation	glut_max1_r/activation	glut_max2_r/activation	glut_max3_r/activation	iliacus_r/activation	psoas_r/activation	quad_fem_r/activation	gem_r/activation	peri_r/activation	rect_fem_r/activation	vas_med_r/activation	vas_int_r/activation	vas_lat_r/activation	med_gas_r/activation	lat_gas_r/activation	soleus_r/activation	tib_post_r/activation	flex_dig_r/activation	flex_hal_r/activation	tib_ant_r/activation	per_brev_r/activation	per_long_r/activation	per_tert_r/activation	ext_dig_r/activation	ext_hal_r/activation	ercspn_r/activation	intobl_r/activation	extobl_r/activation	
          0.61828689	         -2.93017647	          1.64262756	         -8.46740944	          0.77285862	          0.85369981	          0.00355768	         33.69660116	          0.88152606	         -0.86951001	        -16.35950086	         -2.91704453	          7.02856336	        -15.70252039	        -15.42276355	          9.46253914	         -5.45835478	         -0.57986017	         15.74928266	          0.02157048	          1.42637649	         -0.09146031	         27.84998849	         -0.29102155	          0.79245258	          3.14933148	        -11.57647093	        -13.53539677	         10.32668000	          3.88386227	        -13.51484154	         18.44633589	         16.06824965	         44.40017548	         86.51662706	         86.51662706	          0.05000031	          0.05000022	          0.05000064	          0.05000028	          0.05000031	          0.05000072	          0.15303797	          0.06030488	          0.11059540	          0.05000686	          0.05001018	          0.07727161	          0.09007172	          0.18762645	          0.13804437	          0.10287357	          0.05000219	          0.06030016	          0.06030581	          0.05000041	          0.05000090	          0.08546703	          0.06033694	          0.06536103	          0.18909685	          0.05000890	          0.05017751	          0.05000068	          0.09513606	          0.10265787	          0.08831392	          0.06030478	          0.06030479	          0.06030477	          0.05000008	          0.05000064	          0.05000239	          0.51747290	          0.33513955	          0.20450530	          0.10959874	          0.56879450	          0.32779005	          0.05303585	          0.13910299	          0.11065273	          0.18828847	          0.08772292	          0.07349019	          0.19814466	          0.12951820	          0.08769734	          0.05000167	          0.05000019	          0.05000018	          0.05000055	          0.09040104	          0.05000073	          0.05000026	          0.05000027	          0.05000045	          0.05000032	          0.17306432	          0.05000205	          0.05000091	          0.05001106	          0.05000281	          0.05000087	          0.36317840	          0.56801476	          0.05000074	          0.05000179	          0.06928975	          0.21663209	          0.08525141	          0.06807939	          0.07968624	          0.16950462	          0.25139977	          0.06030486	          0.17038762	          0.20973681	          0.22139024	          0.05000002	          0.36717446	          0.33101735	          0.05000006	          0.21254723	          0.05000020	          0.05000000	          0.05000003	          0.05000005	
          0.63065263	         -2.92611273	          1.56518449	         -8.61863398	          0.79291328	          0.85256515	          0.00315272	         32.97108048	          1.14048234	         -0.67941451	        -16.60062284	         -3.10192603	          6.80534628	        -15.68046383	        -16.70926157	          8.83815121	         -8.21026218	         -0.92372260	         15.98752416	          0.03734093	          1.11741123	         -0.08833622	         29.50493236	         -0.02683105	          0.65072534	          3.25131247	        -13.09011401	        -13.51335922	         10.13580381	          3.38868006	        -13.57966394	         18.69648030	         16.14688599	         45.66868971	         86.51662706	         86.51662706	          0.06897008	          0.07535076	          0.05000088	          0.06030433	          0.06030353	          0.05000543	          0.12688717	          0.05000025	          0.09169709	          0.05000019	          0.05000148	          0.06406767	          0.07468050	          0.21563686	          0.19379836	          0.12431696	          0.05000051	          0.05000112	          0.05000107	          0.06030483	          0.09951287	          0.10643003	          0.05002675	          0.05419237	          0.40195171	          0.06030573	          0.07490443	          0.07273324	          0.22674757	          0.22540882	          0.19991449	          0.05000000	          0.05000002	          0.05000000	          0.05000015	          0.07273196	          0.05000138	          0.68635909	          0.36579434	          0.22895741	          0.51194359	          0.64320207	          0.44880295	          0.05000001	          0.11533331	          0.09174458	          0.15611416	          0.07273308	          0.06093254	          0.16428616	          0.10738642	          0.07271193	          0.05000127	          0.05000012	          0.05000018	          0.05000010	          0.07495364	          0.12356045	          0.15379180	          0.10833493	          0.05017320	          0.05000287	          0.14349142	          0.06033066	          0.05000103	          0.05000242	          0.05000207	          0.05000258	          0.30111911	          0.47095339	          0.07273287	          0.06037749	          0.06030499	          0.17961437	          0.07721941	          0.11508024	          0.07650093	          0.14053995	          0.20844100	          0.05000008	          0.14127207	          0.17389736	          0.18355947	          0.24212301	          0.36193051	          0.30170781	          0.47927576	          0.37980814	          0.05000025	          0.05892298	          0.07188246	          0.05074940	
          0.64301837	         -2.91519523	          1.48883785	         -8.73026822	          0.81316534	          0.85114091	          0.00276195	         32.12166835	          1.38386940	         -0.42825247	        -16.63911192	         -3.24686255	          6.57891670	        -16.28782278	        -18.37488412	          8.11685211	        -10.79426316	         -1.28377527	         16.17019002	         -0.03336723	          0.79590701	         -0.15462633	         30.37771978	          0.24356559	          0.49237255	          3.33544167	        -14.57398783	        -13.50131372	         10.03017109	          2.82449652	        -13.65288598	         18.86958993	         16.18494827	         46.91458152	         86.51662706	         86.51662706	          0.24237181	          0.24335350	          0.40296327	          0.05000039	          0.05000022	          0.34510820	          0.11303707	          0.05000160	          0.09810686	          0.05000014	          0.05000030	          0.07273402	          0.18032291	          0.23951106	          0.22326058	          0.15649663	          0.05000024	          0.06037511	          0.12759789	          0.05000020	          0.16816638	          0.16623906	          0.05292992	          0.05000048	          0.33326699	          0.05000108	          0.29023292	          0.06030472	          0.18800142	          0.18689147	          0.16575353	          0.06030475	          0.06030476	          0.06030477	          0.06030468	          0.06030391	          0.06030472	          0.56908537	          0.34796455	          0.18983367	          0.42446857	          0.65657770	          0.41727067	          0.05905193	          0.09647079	          0.07606742	          0.17302403	          0.06030466	          0.05052057	          0.13621340	          0.08903647	          0.06028712	          0.05016659	          0.06030608	          0.06031051	          0.05000220	          0.06214591	          0.17747873	          0.27337944	          0.15203552	          0.08339873	          0.13092812	          0.11897189	          0.05002406	          0.06030519	          0.05375473	          0.06029830	          0.06030499	          0.24966441	          0.39047861	          0.06030475	          0.05006080	          0.05000022	          0.14892217	          0.06402432	          0.09541554	          0.06342860	          0.11652472	          0.17282295	          0.05000000	          0.11713174	          0.14418210	          0.15219315	          0.46247156	          0.45220719	          0.31870633	          0.71457505	          0.52257697	          0.27195634	          0.07937856	          0.05959932	          0.05000010	
          0.65538411	         -2.90060150	          1.41841206	         -8.79724501	          0.83324137	          0.84948481	          0.00237064	         31.19853086	          1.61988147	         -0.15150640	        -16.42511459	         -3.35272596	          6.36799120	        -17.01405565	        -20.49168634	          7.58683095	        -12.89032508	         -1.64640408	         16.30235841	         -0.01671718	          0.57999458	         -0.16065643	         29.65196459	          0.48836813	          0.31296917	          3.39960333	        -15.94601712	        -13.50513672	         10.06896769	          2.24949337	        -13.72391720	         18.96550315	         16.13191462	         48.11261838	         86.51662706	         86.51662706	          0.31020636	          0.39927373	          0.49121042	          0.14640252	          0.23716122	          0.28613735	          0.09372150	          0.09200459	          0.08134260	          0.07273280	          0.05000068	          0.06030538	          0.14950965	          0.19858400	          0.20637403	          0.16954340	          0.05000019	          0.05005854	          0.10579437	          0.27003013	          0.23218122	          0.19231260	          0.05000004	          0.05000005	          0.27631920	          0.08461687	          0.24063879	          0.05000002	          0.15587764	          0.23458201	          0.20000431	          0.05000001	          0.05000002	          0.05000000	          0.05000000	          0.05000023	          0.05000014	          0.73337573	          0.39282028	          0.19729493	          0.68453352	          0.75358302	          0.54927190	          0.06810961	          0.07998757	          0.06306915	          0.25143626	          0.05000011	          0.05000004	          0.22109103	          0.07382215	          0.05000029	          0.05000255	          0.05000114	          0.05000483	          0.05000016	          0.05152709	          0.14872401	          0.25167059	          0.12605627	          0.06914839	          0.10855558	          0.09864226	          0.06033883	          0.05000074	          0.05000083	          0.05000059	          0.05000060	          0.20700223	          0.38948413	          0.05000009	          0.05000034	          0.05000022	          0.12347460	          0.05308442	          0.08772325	          0.08772325	          0.09661317	          0.14329126	          0.05000002	          0.09711647	          0.11954457	          0.12618668	          0.38344521	          0.37493496	          0.26522760	          0.61721949	          0.65888739	          0.22548493	          0.11719887	          0.05000000	          0.05000004	
